<svg width="2501" height="2439" viewBox="0 0 2501 2439" fill="none" xmlns="http://www.w3.org/2000/svg">
<g clip-path="url(#clip0_3_2)">
<path d="M442.734 1.02919H2057.32C2302.11 1.02919 2500.03 198.946 2500.03 443.738V1995.82C2500.03 2240.61 2302.11 2438.53 2057.32 2438.53H442.734C197.943 2438.53 0.0259399 2240.61 0.0259399 1995.82V443.738C0.0259399 198.946 197.943 1.02919 442.734 1.02919Z" fill="#470137"/>
<path d="M1314.61 641.654L1002.11 1157.28L1335.44 1704.15C1337.53 1708.32 1338.57 1712.49 1337.53 1716.65C1336.48 1720.82 1332.32 1717.7 1326.07 1718.74H1087.53C1070.86 1718.74 1059.4 1717.7 1052.11 1707.28C1030.23 1663.53 1007.32 1620.82 985.443 1577.07C963.568 1534.36 939.609 1490.61 914.609 1445.82C889.609 1401.03 864.609 1356.24 839.609 1310.4H837.526C815.651 1355.2 791.693 1399.99 767.734 1444.78C743.776 1489.57 719.818 1534.36 696.901 1578.11C672.943 1621.86 648.984 1666.65 625.026 1709.36C620.859 1719.78 612.526 1720.82 601.068 1720.82H371.901C367.734 1720.82 364.609 1722.9 364.609 1717.7C363.568 1713.53 364.609 1709.36 366.693 1706.24L690.651 1174.99L375.026 640.613C371.901 636.446 370.859 632.279 372.943 630.196C375.026 627.071 379.193 626.029 383.359 626.029H619.818C625.026 626.029 630.234 627.071 634.401 628.113C638.568 630.196 641.693 633.321 644.818 637.488C664.609 682.279 687.526 727.071 711.484 771.863C736.484 816.654 760.443 860.404 786.484 904.154C811.484 947.904 834.401 991.654 856.276 1036.45H858.359C880.234 990.613 903.151 945.821 926.068 902.071C948.984 858.321 972.943 814.571 996.901 770.821C1020.86 727.071 1043.78 682.279 1066.69 639.571C1067.73 635.404 1069.82 631.238 1072.94 629.154C1077.11 627.071 1081.28 626.029 1086.48 627.071H1306.28C1311.48 626.029 1316.69 629.154 1317.73 634.363C1318.78 635.404 1316.69 639.571 1314.61 641.654ZM1795.86 1740.61C1718.78 1741.65 1641.69 1726.03 1571.9 1693.74C1506.28 1663.53 1452.11 1613.53 1414.61 1552.07C1376.07 1488.53 1357.32 1409.36 1357.32 1314.57C1356.28 1237.49 1376.07 1161.45 1414.61 1094.78C1454.19 1027.07 1511.48 970.821 1580.23 933.321C1653.15 892.696 1740.65 872.904 1843.78 872.904C1848.98 872.904 1856.28 872.904 1865.65 873.946C1875.03 874.988 1885.44 874.988 1897.94 876.029V546.863C1897.94 539.571 1901.07 535.404 1908.36 535.404H2119.82C2125.03 534.363 2129.19 538.529 2130.23 542.696V1536.45C2130.23 1555.2 2131.28 1576.03 2132.32 1598.95C2134.4 1620.82 2135.44 1641.65 2136.48 1659.36C2136.48 1666.65 2133.36 1672.9 2126.07 1676.03C2071.9 1698.95 2014.61 1715.61 1956.28 1726.03C1903.15 1735.4 1850.03 1740.61 1795.86 1740.61ZM1897.94 1532.28V1073.95C1888.57 1071.86 1879.19 1069.78 1869.82 1068.74C1858.36 1067.7 1846.9 1066.65 1835.44 1066.65C1794.82 1066.65 1754.19 1074.99 1717.73 1093.74C1682.32 1111.45 1652.11 1137.49 1629.19 1170.82C1606.28 1204.15 1594.82 1248.95 1594.82 1303.11C1593.78 1339.57 1600.03 1376.03 1612.53 1410.4C1622.94 1438.53 1638.57 1463.53 1659.4 1484.36C1679.19 1503.11 1703.15 1517.7 1730.23 1526.03C1758.36 1535.4 1787.53 1539.57 1816.69 1539.57C1832.32 1539.57 1846.9 1538.53 1860.44 1537.49C1873.98 1538.53 1885.44 1536.45 1897.94 1532.28Z" fill="#FF61F6"/>
</g>
<defs>
<clipPath id="clip0_3_2">
<rect width="2500" height="2438" fill="white" transform="translate(0.0259705 0.779221)"/>
</clipPath>
</defs>
</svg>
