<svg width="435" height="435" viewBox="0 0 435 435" fill="none" xmlns="http://www.w3.org/2000/svg">
<g clip-path="url(#clip0_1_2)">
<path d="M27.336 14.872L55.513 375.346C55.936 380.759 59.6 385.375 64.776 387.016L213.044 434.024C215.666 434.855 218.481 434.855 221.103 434.024L369.371 387.016C374.547 385.375 378.211 380.759 378.634 375.346L406.811 14.872C407.417 7.122 401.292 0.5 393.519 0.5H40.629C32.856 0.5 26.731 7.122 27.336 14.872ZM334.553 126.715H150.918L156.46 177.82H330.559L319.17 323.513L217.074 355.882L114.978 323.513L109.028 247.397H162.616V284.733L218.506 299.733L274.062 284.733L278.372 225.23H107.295L95.937 79.919H338.21L334.553 126.715Z" fill="#FC490B"/>
</g>
<defs>
<clipPath id="clip0_1_2">
<rect width="434.147" height="434.147" fill="white" transform="translate(0 0.5)"/>
</clipPath>
</defs>
</svg>
