<svg width="166" height="172" viewBox="0 0 166 172" fill="none" xmlns="http://www.w3.org/2000/svg">
<g clip-path="url(#clip0_5_9)">
<path d="M138.333 28.6666H27.6667C23.9979 28.6666 20.4793 30.1767 17.8851 32.8648C15.2908 35.5528 13.8334 39.1985 13.8334 43V129C13.8334 132.801 15.2908 136.447 17.8851 139.135C20.4793 141.823 23.9979 143.333 27.6667 143.333H138.333C142.002 143.333 145.521 141.823 148.115 139.135C150.709 136.447 152.167 132.801 152.167 129V43C152.167 39.1985 150.709 35.5528 148.115 32.8648C145.521 30.1767 142.002 28.6666 138.333 28.6666ZM138.333 59.0246L83 94.0123L27.6667 59.0246V43H138.333V59.0246Z" fill="black"/>
</g>
<defs>
<clipPath id="clip0_5_9">
<rect width="166" height="172" fill="white"/>
</clipPath>
</defs>
</svg>
