<svg width="113" height="113" viewBox="0 0 113 113" fill="none" xmlns="http://www.w3.org/2000/svg">
<g clip-path="url(#clip0_5_13)">
<path d="M56.099 112.196C87.081 112.196 112.197 87.0801 112.197 56.098C112.197 25.1159 87.081 0 56.099 0C25.1169 0 0.000976562 25.1159 0.000976562 56.098C0.000976562 87.0801 25.1169 112.196 56.099 112.196Z" fill="#55ACEE"/>
<path d="M90.461 40.316C88.057 41.382 85.471 42.103 82.759 42.425C85.528 40.766 87.653 38.141 88.656 35.008C86.065 36.545 83.194 37.66 80.141 38.261C77.695 35.656 74.21 34.028 70.351 34.028C62.947 34.028 56.942 40.033 56.942 47.437C56.942 48.488 57.061 49.511 57.291 50.493C46.147 49.934 36.266 44.596 29.652 36.481C28.498 38.461 27.836 40.766 27.836 43.223C27.836 47.874 30.205 51.98 33.801 54.384C31.604 54.315 29.535 53.712 27.728 52.705C27.727 52.762 27.727 52.819 27.727 52.875C27.727 59.372 32.351 64.791 38.484 66.022C37.36 66.33 36.173 66.493 34.952 66.493C34.086 66.493 33.247 66.41 32.429 66.254C34.135 71.58 39.086 75.457 44.955 75.566C40.365 79.163 34.584 81.306 28.3 81.306C27.22 81.306 26.15 81.243 25.103 81.118C31.034 84.924 38.084 87.143 45.656 87.143C70.32 87.143 83.808 66.711 83.808 48.99C83.808 48.409 83.795 47.83 83.769 47.256C86.391 45.366 88.664 43.005 90.461 40.316Z" fill="#F1F2F2"/>
</g>
<defs>
<clipPath id="clip0_5_13">
<rect width="112.197" height="112.197" fill="white"/>
</clipPath>
</defs>
</svg>
